<?xml version="1.0" encoding="UTF-8"?>
<svg xmlns="http://www.w3.org/2000/svg" version="1.1" viewBox="0 0 841 841">
  <defs>
    <style>
      .cls-1, .cls-2 {
        stroke: #fff;
        stroke-miterlimit: 10;
      }

      .cls-2 {
        fill: #fff;
      }
    </style>
  </defs>
  <!-- Generator: Adobe Illustrator 28.7.1, SVG Export Plug-In . SVG Version: 1.2.0 Build 142)  -->
  <g>
    <g id="Layer_2">
      <path class="cls-1" d="M420.5,420.5l405.7,108.7c-4.7,17.7-10.6,35.1-17.7,52-7,16.9-15.1,33.4-24.3,49.3l-363.7-210h0Z"/>
      <path class="cls-1" d="M420.5,420.5l363.7,210c-9.2,15.9-19.4,31.1-30.5,45.7-11.2,14.5-23.3,28.3-36.2,41.3l-297-297h0Z"/>
      <path class="cls-1" d="M420.5,420.5l297,297c-13,13-26.8,25.1-41.3,36.2-14.5,11.2-29.8,21.4-45.7,30.5l-210-363.7h0Z"/>
      <path class="cls-1" d="M420.5,420.5l210,363.7c-15.9,9.2-32.3,17.3-49.3,24.3-16.9,7-34.3,12.9-52,17.7l-108.7-405.7h0Z"/>
      <path class="cls-1" d="M420.5,420.5l108.7,405.7c-17.7,4.7-35.7,8.3-53.9,10.7-18.2,2.4-36.5,3.6-54.8,3.6v-420Z"/>
      <path class="cls-1" d="M420.5,420.5v420c-18.3,0-36.6-1.2-54.8-3.6-18.2-2.4-36.2-6-53.9-10.7l108.7-405.7Z"/>
      <path class="cls-1" d="M420.5,420.5l-108.7,405.7c-17.7-4.7-35.1-10.6-52-17.7-16.9-7-33.4-15.1-49.3-24.3l210-363.7h0Z"/>
      <path class="cls-1" d="M420.5,420.5l-210,363.7c-15.9-9.2-31.1-19.4-45.7-30.5-14.5-11.2-28.3-23.3-41.3-36.2l297-297h0Z"/>
      <path class="cls-1" d="M420.5,420.5L123.5,717.5c-13-13-25.1-26.8-36.2-41.3-11.2-14.5-21.4-29.8-30.5-45.7l363.7-210h0Z"/>
      <path class="cls-1" d="M420.5,420.5L56.8,630.5c-9.2-15.9-17.3-32.3-24.3-49.3-7-16.9-12.9-34.3-17.7-52l405.7-108.7h0Z"/>
      <path class="cls-2" d="M420.5,420.5L14.8,529.2c-4.7-17.7-8.3-35.7-10.7-53.9-2.4-18.2-3.6-36.5-3.6-54.8h420Z"/>
      <path class="cls-1" d="M420.5,420.5H.5c0-18.3,1.2-36.6,3.6-54.8,2.4-18.2,6-36.2,10.7-53.9l405.7,108.7Z"/>
      <path class="cls-1" d="M420.5,420.5L14.8,311.8c4.7-17.7,10.6-35.1,17.7-52,7-16.9,15.1-33.4,24.3-49.3l363.7,210h0Z"/>
      <path class="cls-1" d="M420.5,420.5L56.8,210.5c9.2-15.9,19.4-31.1,30.5-45.7s23.3-28.3,36.2-41.3l297,297h0Z"/>
      <path class="cls-1" d="M420.5,420.5L123.5,123.5c13-13,26.8-25.1,41.3-36.2,14.5-11.2,29.8-21.4,45.7-30.5l210,363.7h0Z"/>
      <path class="cls-1" d="M420.5,420.5L210.5,56.8c15.9-9.2,32.3-17.3,49.3-24.3,16.9-7,34.3-12.9,52-17.7l108.7,405.7h0Z"/>
      <path class="cls-1" d="M420.5,420.5L311.8,14.8c17.7-4.7,35.7-8.3,53.9-10.7,18.2-2.4,36.5-3.6,54.8-3.6v420Z"/>
      <path class="cls-1" d="M420.5,420.5V.5c18.3,0,36.6,1.2,54.8,3.6,18.2,2.4,36.2,6,53.9,10.7l-108.7,405.7Z"/>
      <path class="cls-1" d="M420.5,420.5L529.2,14.8c17.7,4.7,35.1,10.6,52,17.7,16.9,7,33.4,15.1,49.3,24.3l-210,363.7h0Z"/>
      <path class="cls-1" d="M420.5,420.5L630.5,56.8c15.9,9.2,31.1,19.4,45.7,30.5s28.3,23.3,41.3,36.2l-297,297h0Z"/>
      <path class="cls-1" d="M420.5,420.5L717.5,123.5c13,13,25.1,26.8,36.2,41.3,11.2,14.5,21.4,29.8,30.5,45.7l-363.7,210h0Z"/>
      <path class="cls-1" d="M420.5,420.5l363.7-210c9.2,15.9,17.3,32.3,24.3,49.3,7,16.9,12.9,34.3,17.7,52l-405.7,108.7h0Z"/>
      <path class="cls-1" d="M420.5,420.5l405.7-108.7c4.7,17.7,8.3,35.7,10.7,53.9,2.4,18.2,3.6,36.5,3.6,54.8h-420Z"/>
      <path class="cls-1" d="M420.5,420.5h420c0,18.3-1.2,36.6-3.6,54.8-2.4,18.2-6,36.2-10.7,53.9l-405.7-108.7Z"/>
      <circle class="cls-1" cx="420.5" cy="420.5" r="360"/>
    </g>
  </g>
</svg>